<svg width="865" height="865" viewBox="0 0 865 865" fill="none" xmlns="http://www.w3.org/2000/svg">
<path d="M670.375 670.375V583.875C670.375 571.711 666.095 561.461 657.535 553.127C648.975 544.792 638.839 540.625 627.125 540.625H237.875C226.161 540.625 216.025 544.792 207.465 553.127C198.905 561.461 194.625 571.711 194.625 583.875V670.375C170.747 670.375 150.361 661.927 133.467 645.033C116.572 628.138 108.125 607.752 108.125 583.875V410.875C108.125 386.997 116.572 366.611 133.467 349.717C150.361 332.822 170.747 324.375 194.625 324.375V410.875C194.625 423.039 198.905 433.288 207.465 441.623C216.025 449.957 226.161 454.125 237.875 454.125H627.125C638.839 454.125 648.975 449.957 657.535 441.623C666.095 433.288 670.375 423.039 670.375 410.875V324.375C694.253 324.375 714.639 332.822 731.533 349.717C748.428 366.611 756.875 386.997 756.875 410.875V583.875C756.875 607.752 748.428 628.138 731.533 645.033C714.639 661.927 694.253 670.375 670.375 670.375Z" fill="black"/>
<path d="M257.172 568.332C252.417 564.277 246.785 562.25 240.278 562.25C233.77 562.25 228.139 564.277 223.383 568.332C218.628 572.386 216.25 577.342 216.25 583.199V800.125C216.25 805.982 218.628 811.05 223.383 815.33C228.139 819.61 233.77 821.75 240.278 821.75C246.785 821.75 252.417 819.61 257.172 815.33C261.928 811.05 264.306 805.982 264.306 800.125V583.199C264.306 577.342 261.928 572.386 257.172 568.332Z" fill="#FF4500"/>
<path d="M353.659 568.332C349.154 564.277 343.397 562.25 336.389 562.25C329.381 562.25 323.624 564.277 319.119 568.332C314.614 572.386 312.361 577.342 312.361 583.199V756.875C312.361 762.732 314.614 767.8 319.119 772.08C323.624 776.36 329.381 778.5 336.389 778.5C343.397 778.5 349.154 776.36 353.659 772.08C358.164 767.8 360.417 762.732 360.417 756.875V583.199C360.417 577.342 358.164 572.386 353.659 568.332Z" fill="#FF4500"/>
<path d="M449.395 568.332C444.639 564.277 439.008 562.25 432.5 562.25C425.992 562.25 420.361 564.277 415.605 568.332C410.85 572.386 408.472 577.342 408.472 583.199V713.625C408.472 719.482 410.85 724.437 415.605 728.492C420.361 732.547 425.992 734.574 432.5 734.574C439.008 734.574 444.639 732.547 449.395 728.492C454.15 724.437 456.528 719.482 456.528 713.625V583.199C456.528 577.342 454.15 572.386 449.395 568.332Z" fill="#FF4500"/>
<path d="M545.881 568.332C541.376 564.277 535.619 562.25 528.611 562.25C521.603 562.25 515.846 564.277 511.341 568.332C506.836 572.386 504.583 577.342 504.583 583.199V800.125C504.583 805.982 506.836 811.05 511.341 815.33C515.846 819.61 521.603 821.75 528.611 821.75C535.619 821.75 541.376 819.61 545.881 815.33C550.386 811.05 552.639 805.982 552.639 800.125V583.199C552.639 577.342 550.386 572.386 545.881 568.332Z" fill="#FF4500"/>
<path d="M641.617 568.332C636.861 564.277 631.23 562.25 624.722 562.25C618.215 562.25 612.583 564.277 607.828 568.332C603.072 572.386 600.694 577.342 600.694 583.199V756.875C600.694 762.732 603.072 767.8 607.828 772.08C612.583 776.36 618.215 778.5 624.722 778.5C631.23 778.5 636.861 776.36 641.617 772.08C646.372 767.8 648.75 762.732 648.75 756.875V583.199C648.75 577.342 646.372 572.386 641.617 568.332Z" fill="#FF4500"/>
<path d="M634.857 186.792C622.342 161.692 592.104 151.876 567.366 164.21C555.672 170.02 546.674 180.122 542.249 192.406C500.196 185.715 450.564 192.489 402.393 214.201L374.84 107.177L449.203 88.0728C458.412 104.685 479.247 111.354 496.602 102.701C514.319 93.8672 521.539 72.2957 512.701 54.5684C503.867 36.8508 482.296 29.6311 464.575 38.466C452.025 44.7234 444.627 57.6306 444.798 70.9139L361.948 92.4007C359.547 93.1329 357.517 94.6103 356.591 96.4552C355.298 98.4834 355.111 100.878 355.851 103.276L386.699 222.482C339.449 247.888 303.432 283.818 283.285 321.983C270.81 318.125 257.327 319.234 245.649 325.077C220.546 337.593 210.733 367.831 223.067 392.569C232.269 411.024 251.07 421.005 270.079 420.293C271.576 425.182 273.483 429.936 275.781 434.504L562.249 434.504C616.312 408.969 671.602 324.265 636.817 254.498C634.534 249.924 631.886 245.541 628.9 241.392C640.901 226.643 644.059 205.248 634.857 186.792ZM341.516 373.144C332.683 355.426 339.899 333.853 357.626 325.015C375.344 316.181 396.916 323.397 405.751 341.117C414.586 358.837 407.373 380.415 389.653 389.25C372.109 398.45 350.351 390.864 341.516 373.144ZM545.371 408.969C535.695 413.793 531.241 407.964 497.374 421.69C476.271 430.243 473.469 434.504 473.469 434.504L429.458 434.504C429.458 434.504 429.796 433.003 430.538 431.552C441.539 410.022 453.122 399.172 474.164 388.681C495.208 378.189 516.397 375.087 539.403 377.274C550.215 377.368 554.724 384.795 554.724 384.795C554.724 384.795 563.561 399.9 545.371 408.969ZM531.585 318.941C513.865 327.776 492.295 320.558 483.46 302.838C474.625 285.118 481.843 263.548 499.563 254.713C517.288 245.876 538.858 253.093 547.693 270.813C556.341 288.158 549.31 310.103 531.585 318.941Z" fill="#FF4500"/>
</svg>
